<?xml version="1.0" encoding="UTF-8" standalone="no"?><!DOCTYPE svg PUBLIC "-//W3C//DTD SVG 1.1//EN" "http://www.w3.org/Graphics/SVG/1.1/DTD/svg11.dtd"><svg width="100%" height="100%" viewBox="0 0 286 289" version="1.1" xmlns="http://www.w3.org/2000/svg" xmlns:xlink="http://www.w3.org/1999/xlink" xml:space="preserve" xmlns:serif="http://www.serif.com/" style="fill-rule:evenodd;clip-rule:evenodd;stroke-linejoin:round;stroke-miterlimit:2;"><rect id="Votum-Symbol-gr" x="0.232" y="0.18" width="284.891" height="288" style="fill:none;"/><clipPath id="_clip1"><rect x="0.232" y="0.18" width="284.891" height="288"/></clipPath><g clip-path="url(#_clip1)"><path d="M141.805,196.024c3.413,0.058 2.378,-1.773 28.306,-67.228c44.986,-113.568 45.136,-127.501 101.372,-128.111c9.713,-0.105 16.198,-2.925 12.667,5.991c-84.841,214.211 -88.061,232.09 -104.219,253.957c-23.484,31.781 -66.2,27.542 -67.082,27.152c-2.895,-1.28 -54.303,-138.154 -107.313,-272.627c-3.629,-9.205 -9.898,-14.543 0.086,-14.492c47.324,0.243 56.942,-0.386 75.254,39.535c9.653,21.045 59.286,150.784 60.93,155.824Z" style="fill:#78d64b;"/></g></svg>