<?xml version="1.0" encoding="UTF-8" standalone="no"?><!DOCTYPE svg PUBLIC "-//W3C//DTD SVG 1.1//EN" "http://www.w3.org/Graphics/SVG/1.1/DTD/svg11.dtd"><svg width="100%" height="100%" viewBox="0 0 1575 289" version="1.1" xmlns="http://www.w3.org/2000/svg" xmlns:xlink="http://www.w3.org/1999/xlink" xml:space="preserve" xmlns:serif="http://www.serif.com/" style="fill-rule:evenodd;clip-rule:evenodd;stroke-linejoin:round;stroke-miterlimit:2;"><rect id="Votum-Logo-gr" x="0.232" y="0.053" width="1573.992" height="288" style="fill:none;"/><clipPath id="_clip1"><rect x="0.232" y="0.053" width="1573.992" height="288"/></clipPath><g clip-path="url(#_clip1)"><g><path d="M141.805,195.898c3.413,0.058 2.378,-1.773 28.306,-67.228c44.986,-113.568 45.136,-127.501 101.372,-128.112c9.713,-0.105 16.198,-2.925 12.667,5.991c-84.842,214.211 -88.061,232.091 -104.219,253.958c-23.484,31.781 -66.2,27.542 -67.082,27.152c-2.895,-1.28 -54.304,-138.155 -107.314,-272.628c-3.629,-9.205 -9.898,-14.543 0.086,-14.492c47.324,0.243 56.942,-0.386 75.255,39.535c9.653,21.045 59.286,150.785 60.93,155.824Z" style="fill:#78d64b;"/><g><path d="M537.317,37.062c3.23,0 6.762,-0.05 10.597,-0.151c3.835,-0.101 6.762,0.454 8.781,1.665c1.817,1.211 3.078,3.129 3.785,5.753c0.706,2.624 1.463,5.046 2.271,7.267c1.615,4.037 3.028,8.125 4.239,12.263c1.211,4.138 2.624,8.226 4.239,12.263c0.404,1.009 0.706,2.019 0.908,3.028c0.202,1.009 0.404,2.019 0.606,3.028c1.413,3.432 2.675,7.015 3.785,10.749c1.11,3.734 2.271,7.519 3.482,11.354c2.826,8.276 5.602,16.451 8.327,24.526c2.725,8.074 5.501,16.249 8.327,24.526c1.413,4.037 2.675,8.125 3.785,12.263c1.11,4.138 2.473,8.226 4.088,12.263c0.404,1.009 0.757,2.119 1.06,3.331c0.303,1.211 0.656,2.422 1.06,3.633c2.22,5.854 4.239,11.91 6.056,18.167c0.807,2.019 1.514,4.088 2.119,6.207c0.606,2.119 1.514,3.987 2.725,5.602c0.404,0.404 1.11,1.009 2.119,1.817c2.422,-0.202 3.936,-1.262 4.542,-3.179c0.606,-1.918 1.312,-3.785 2.119,-5.602c2.22,-5.248 4.037,-10.597 5.45,-16.048c1.413,-5.45 3.129,-10.799 5.147,-16.048c1.211,-3.23 2.271,-6.459 3.179,-9.689c0.908,-3.23 1.968,-6.459 3.179,-9.689c1.009,-2.422 1.867,-4.895 2.574,-7.418c0.706,-2.523 1.564,-4.996 2.574,-7.418c3.028,-8.478 5.854,-17.057 8.478,-25.737c2.624,-8.68 5.551,-17.259 8.781,-25.737c0.404,-0.807 0.606,-1.564 0.606,-2.271c0,-0.706 0.202,-1.463 0.606,-2.271c1.211,-3.028 2.321,-6.157 3.331,-9.386c1.009,-3.23 2.019,-6.358 3.028,-9.386c1.211,-3.028 2.271,-6.106 3.179,-9.235c0.908,-3.129 1.968,-6.308 3.179,-9.538c0.606,-1.817 1.262,-3.583 1.968,-5.299c0.706,-1.716 1.867,-3.078 3.482,-4.088c1.211,-1.009 2.876,-1.514 4.996,-1.514l13.171,0c1.615,0.404 3.028,0.757 4.239,1.06c1.211,0.303 2.019,1.262 2.422,2.876c0,0.404 0.05,0.858 0.151,1.363c0.101,0.505 0.05,0.959 -0.151,1.363c-0.404,2.019 -0.959,3.987 -1.665,5.904c-0.706,1.918 -1.363,3.684 -1.968,5.299c-0.807,1.615 -1.463,3.28 -1.968,4.996c-0.505,1.716 -1.06,3.381 -1.665,4.996c-1.211,2.826 -2.271,5.803 -3.179,8.932c-0.908,3.129 -1.968,6.106 -3.179,8.932c-0.404,0.807 -0.606,1.514 -0.606,2.119c0,0.606 -0.202,1.312 -0.606,2.119c-1.615,3.432 -2.977,7.065 -4.088,10.9c-1.11,3.835 -2.473,7.469 -4.088,10.9c-0.404,0.807 -0.606,1.564 -0.606,2.271c0,0.706 -0.202,1.363 -0.606,1.968c-1.009,2.624 -1.968,5.299 -2.876,8.024c-0.908,2.725 -1.867,5.4 -2.876,8.024c-0.404,0.606 -0.656,1.262 -0.757,1.968c-0.101,0.706 -0.353,1.463 -0.757,2.271c-3.028,7.671 -5.803,15.442 -8.327,23.314c-2.523,7.872 -5.299,15.644 -8.327,23.314l-0.908,2.725c-0.807,2.22 -1.564,4.39 -2.271,6.51c-0.706,2.119 -1.463,4.289 -2.271,6.51c-1.009,2.422 -1.918,4.895 -2.725,7.418c-0.807,2.523 -1.716,4.996 -2.725,7.418c-0.404,1.211 -2.019,6.056 -2.422,7.267c-1.211,3.028 -2.321,6.157 -3.331,9.386c-1.009,3.23 -2.119,6.258 -3.331,9.084c-1.009,2.624 -1.968,5.4 -2.876,8.327c-0.908,2.927 -2.372,5.097 -4.39,6.51c-0.807,0.404 -1.716,0.706 -2.725,0.908c-1.009,0.202 -2.119,0.404 -3.331,0.606l-8.478,0c-2.422,0 -5.046,0.05 -7.872,0.151c-2.826,0.101 -5.046,-0.353 -6.661,-1.363c-1.817,-1.009 -3.028,-2.473 -3.633,-4.39c-0.606,-1.918 -1.413,-3.987 -2.422,-6.207c-1.211,-3.028 -2.321,-6.207 -3.331,-9.538c-1.009,-3.331 -2.22,-6.611 -3.633,-9.84c-0.404,-0.807 -0.656,-1.615 -0.757,-2.422c-0.101,-0.807 -0.353,-1.615 -0.757,-2.422c-1.615,-4.037 -3.078,-8.125 -4.39,-12.263c-1.312,-4.138 -2.776,-8.125 -4.39,-11.96c-0.404,-1.009 -0.656,-1.918 -0.757,-2.725c-0.101,-0.807 -0.353,-1.615 -0.757,-2.422c-1.009,-2.826 -2.019,-5.602 -3.028,-8.327c-1.009,-2.725 -2.019,-5.501 -3.028,-8.327c-0.404,-0.807 -0.656,-1.615 -0.757,-2.422c-0.101,-0.807 -0.353,-1.615 -0.757,-2.422c-1.009,-2.624 -1.968,-5.299 -2.876,-8.024c-0.908,-2.725 -1.867,-5.501 -2.876,-8.327c-1.009,-2.22 -1.817,-4.491 -2.422,-6.813c-0.606,-2.321 -1.413,-4.592 -2.422,-6.813c-2.22,-5.652 -4.239,-11.455 -6.056,-17.41c-1.817,-5.955 -3.936,-11.758 -6.358,-17.41c-0.807,-1.817 -1.463,-3.684 -1.968,-5.602c-0.505,-1.918 -1.06,-3.684 -1.665,-5.299c-0.606,-1.211 -1.06,-2.473 -1.363,-3.785c-0.303,-1.312 -0.757,-2.574 -1.363,-3.785c-1.817,-4.643 -3.482,-9.386 -4.996,-14.231c-1.514,-4.845 -3.179,-9.588 -4.996,-14.231c-0.404,-1.413 -0.858,-2.826 -1.363,-4.239c-0.505,-1.413 -0.959,-2.927 -1.363,-4.542c-0.807,-2.019 -0.908,-3.734 -0.303,-5.147c0.606,-1.413 2.019,-2.321 4.239,-2.725c0.404,-0.202 0.807,-0.252 1.211,-0.151c0.404,0.101 0.807,0.05 1.211,-0.151Z" style="fill:#78d64b;fill-rule:nonzero;"/><path d="M930.331,140.312c0.202,1.009 0.303,2.473 0.303,4.39c0,1.918 -0.101,3.381 -0.303,4.39l0,3.633c-0.404,2.019 -0.606,4.088 -0.606,6.207c0,2.119 -0.202,4.088 -0.606,5.904c-0.404,1.615 -0.706,3.129 -0.908,4.542c-0.202,1.413 -0.404,2.927 -0.606,4.542c-1.009,3.432 -1.918,6.762 -2.725,9.992c-0.807,3.23 -1.817,6.358 -3.028,9.386c-6.056,14.736 -13.979,27.049 -23.769,36.94c-9.79,9.891 -22.557,17.461 -38.302,22.709c-2.22,0.606 -4.441,1.11 -6.661,1.514c-2.22,0.404 -4.441,0.908 -6.661,1.514c-1.009,0.202 -1.918,0.303 -2.725,0.303c-0.807,0 -1.615,0.101 -2.422,0.303l-9.992,0.908c-0.606,0.202 -1.968,0.252 -4.088,0.151c-2.119,-0.101 -3.482,-0.252 -4.088,-0.454c-1.009,-0.202 -1.968,-0.252 -2.876,-0.151c-0.908,0.101 -1.766,0.05 -2.574,-0.151l-3.331,0c-1.413,-0.404 -2.776,-0.656 -4.088,-0.757c-1.312,-0.101 -2.675,-0.252 -4.088,-0.454c-2.019,-0.606 -3.987,-1.06 -5.904,-1.363c-1.918,-0.303 -3.886,-0.757 -5.904,-1.363c-2.019,-0.807 -10.093,-4.037 -12.111,-4.845c-12.313,-5.45 -22.457,-12.969 -30.43,-22.557c-7.973,-9.588 -14.584,-20.741 -19.832,-33.458c-1.211,-2.826 -2.119,-5.753 -2.725,-8.781c-0.606,-3.028 -1.413,-6.157 -2.422,-9.386c-0.404,-0.807 -0.555,-1.514 -0.454,-2.119c0.101,-0.606 -0.05,-1.413 -0.454,-2.422c-0.404,-1.413 -0.606,-2.927 -0.606,-4.542c0,-1.615 -0.202,-3.23 -0.606,-4.845c-0.404,-0.807 -0.555,-1.615 -0.454,-2.422c0.101,-0.807 0.05,-1.514 -0.151,-2.119l0,-6.358c-0.404,-1.009 -0.606,-2.422 -0.606,-4.239c0,-1.817 0.202,-3.23 0.606,-4.239l0,-3.936l0.908,-10.9c0.404,-1.211 0.606,-2.422 0.606,-3.633c0,-1.211 0.202,-2.422 0.606,-3.633c0.807,-3.23 1.514,-6.409 2.119,-9.538c0.606,-3.129 1.514,-6.106 2.725,-8.932c1.615,-3.835 3.129,-7.57 4.542,-11.203c1.413,-3.633 3.23,-7.065 5.45,-10.295c5.652,-9.084 12.313,-16.956 19.984,-23.617c7.671,-6.661 16.754,-12.111 27.251,-16.35c2.22,-1.009 4.592,-1.817 7.115,-2.422c2.523,-0.606 5.097,-1.312 7.721,-2.119c1.211,-0.404 2.473,-0.606 3.785,-0.606c1.312,0 2.574,-0.202 3.785,-0.606c1.615,-0.202 3.179,-0.353 4.693,-0.454c1.514,-0.101 3.078,-0.252 4.693,-0.454c0.404,-0.202 0.908,-0.202 1.514,0c0.606,0.202 1.11,0.202 1.514,0c13.524,-0.404 25.333,0.959 35.426,4.088c10.093,3.129 18.974,7.418 26.645,12.868c3.028,2.019 5.955,4.138 8.781,6.358c2.826,2.22 5.349,4.744 7.57,7.57c0.606,1.009 1.312,1.817 2.119,2.422c0.807,0.606 1.514,1.413 2.119,2.422c1.211,1.615 2.422,3.28 3.633,4.996c1.211,1.716 2.321,3.381 3.331,4.996c0.404,1.009 0.807,1.867 1.211,2.574c0.404,0.706 0.908,1.564 1.514,2.574c0.807,1.211 1.514,2.422 2.119,3.633c1.615,3.633 3.23,7.469 4.845,11.506c0.404,1.211 0.757,2.372 1.06,3.482c0.303,1.11 0.656,2.271 1.06,3.482c0.606,2.019 1.161,4.088 1.665,6.207c0.505,2.119 1.06,4.289 1.665,6.51c0.404,1.009 0.606,2.019 0.606,3.028c0,1.009 0.101,2.019 0.303,3.028c0.404,1.413 0.606,2.826 0.606,4.239c0,1.413 0.202,2.927 0.606,4.542l0,1.817c0.202,1.009 0.202,2.019 0,3.028c-0.202,1.009 -0.101,2.019 0.303,3.028Zm-28.462,9.689c0.404,-1.009 0.606,-2.776 0.606,-5.299c0,-2.523 -0.202,-4.289 -0.606,-5.299l0,-2.422c0,-1.009 -0.05,-1.918 -0.151,-2.725c-0.101,-0.807 -0.151,-1.716 -0.151,-2.725c-0.404,-1.009 -0.555,-1.968 -0.454,-2.876c0.101,-0.908 -0.05,-1.867 -0.454,-2.876c-0.404,-1.817 -0.757,-3.633 -1.06,-5.45c-0.303,-1.817 -0.656,-3.532 -1.06,-5.147c-1.009,-2.826 -1.867,-5.501 -2.574,-8.024c-0.706,-2.523 -1.564,-4.996 -2.574,-7.418c-3.432,-8.276 -8.125,-15.745 -14.079,-22.406c-5.955,-6.661 -12.969,-11.809 -21.044,-15.442c-4.441,-2.019 -9.689,-3.633 -15.745,-4.845c-2.826,-0.807 -6.005,-1.262 -9.538,-1.363c-3.532,-0.101 -7.015,-0.151 -10.446,-0.151c-1.413,0.202 -2.776,0.353 -4.088,0.454c-1.312,0.101 -2.776,0.252 -4.39,0.454c-3.028,0.807 -5.904,1.564 -8.629,2.271c-2.725,0.706 -5.4,1.564 -8.024,2.574c-10.9,4.643 -19.479,11.304 -25.737,19.984c-6.258,8.68 -11.304,18.874 -15.139,30.581c-0.807,2.22 -1.363,4.491 -1.665,6.813c-0.303,2.321 -0.757,4.693 -1.363,7.115c-0.202,1.009 -0.303,1.968 -0.303,2.876c0,0.908 -0.101,1.867 -0.303,2.876c-0.404,0.807 -0.555,1.665 -0.454,2.574c0.101,0.908 0.05,1.766 -0.151,2.574l0,2.725c-0.202,1.009 -0.303,2.826 -0.303,5.45c0,2.624 0.101,4.441 0.303,5.45c0,0.807 0.05,1.564 0.151,2.271c0.101,0.706 0.151,1.463 0.151,2.271c0.404,1.615 0.656,3.381 0.757,5.299c0.101,1.918 0.353,3.684 0.757,5.299c0.202,0.807 0.252,1.564 0.151,2.271c-0.101,0.706 0.05,1.463 0.454,2.271c0.606,2.22 1.11,4.441 1.514,6.661c0.404,2.22 1.11,4.441 2.119,6.661c1.009,2.22 1.867,4.39 2.574,6.51c0.706,2.119 1.665,4.189 2.876,6.207c1.009,1.615 1.968,3.179 2.876,4.693c0.908,1.514 1.867,3.078 2.876,4.693c6.258,8.882 14.433,15.846 24.526,20.892c2.826,1.615 5.702,2.826 8.629,3.633c2.927,0.807 6.106,1.716 9.538,2.725c1.413,0.404 2.725,0.555 3.936,0.454c1.211,-0.101 2.523,0.05 3.936,0.454c1.211,0.404 2.574,0.555 4.088,0.454c1.514,-0.101 3.078,-0.151 4.693,-0.151l3.028,0c1.009,-0.202 2.019,-0.353 3.028,-0.454c1.009,-0.101 2.019,-0.151 3.028,-0.151c2.826,-0.606 5.501,-1.11 8.024,-1.514c2.523,-0.404 4.895,-1.11 7.115,-2.119c10.295,-4.239 18.722,-9.79 25.283,-16.653c6.56,-6.863 11.96,-15.442 16.199,-25.737c1.009,-2.624 1.867,-5.349 2.574,-8.175c0.706,-2.826 1.463,-5.652 2.271,-8.478c0.404,-1.211 0.656,-2.473 0.757,-3.785c0.101,-1.312 0.353,-2.675 0.757,-4.088l0.908,-9.992l0,-2.725Z" style="fill:#78d64b;fill-rule:nonzero;"/><path d="M951.829,36.457l155.631,0c2.019,0 3.734,0.404 5.147,1.211c1.615,1.009 2.574,2.372 2.876,4.088c0.303,1.716 0.454,3.886 0.454,6.51l0,3.633c-0.404,1.615 -0.757,2.927 -1.06,3.936c-0.303,1.009 -0.959,1.918 -1.968,2.725c-1.615,1.009 -3.835,1.514 -6.661,1.514l-42.693,0c-2.22,0 -4.39,-0.05 -6.51,-0.151c-2.119,-0.101 -4.037,0 -5.753,0.303c-1.716,0.303 -3.179,0.908 -4.39,1.817c-1.211,0.908 -2.119,2.271 -2.725,4.088c-0.606,1.817 -0.807,4.138 -0.606,6.964c0.202,2.826 0.303,5.349 0.303,7.57l0,157.145c0,3.028 -0.151,5.753 -0.454,8.175c-0.303,2.422 -1.463,4.138 -3.482,5.147c-1.009,0.404 -2.22,0.656 -3.633,0.757c-1.413,0.101 -2.927,0.151 -4.542,0.151l-8.327,0c-2.927,0 -4.895,-0.706 -5.904,-2.119c-1.211,-1.615 -1.867,-3.532 -1.968,-5.753c-0.101,-2.22 -0.151,-4.643 -0.151,-7.267l0,-156.54c0,-2.22 0.05,-4.794 0.151,-7.721c0.101,-2.927 -0.151,-5.299 -0.757,-7.115c-1.009,-3.23 -3.28,-4.945 -6.813,-5.147c-3.532,-0.202 -7.317,-0.303 -11.354,-0.303l-33.306,0c-2.422,0 -5.198,0.05 -8.327,0.151c-3.129,0.101 -5.501,-0.151 -7.115,-0.757c-0.606,-0.404 -1.211,-0.807 -1.817,-1.211c-0.606,-0.404 -1.11,-0.908 -1.514,-1.514c-0.606,-0.807 -1.009,-2.119 -1.211,-3.936c-0.202,-1.817 -0.252,-3.633 -0.151,-5.45c0.101,-1.817 0.353,-3.532 0.757,-5.147c0.404,-1.615 0.908,-2.725 1.514,-3.331c0.404,-0.606 0.959,-1.06 1.665,-1.363c0.706,-0.303 1.463,-0.555 2.271,-0.757c0.404,-0.202 0.807,-0.252 1.211,-0.151c0.404,0.101 0.807,0.05 1.211,-0.151Z" style="fill:#78d64b;fill-rule:nonzero;"/><path d="M1147.125,36.759c2.826,0 6.207,-0.05 10.143,-0.151c3.936,-0.101 6.51,0.656 7.721,2.271c1.615,1.817 2.372,4.542 2.271,8.175c-0.101,3.633 -0.151,7.065 -0.151,10.295l0,101.736c0,7.065 0.101,13.979 0.303,20.741c0.202,6.762 1.211,12.767 3.028,18.016c2.624,7.872 6.358,14.332 11.203,19.378c4.845,5.046 11.001,9.184 18.47,12.414c2.22,1.009 4.542,1.665 6.964,1.968c2.422,0.303 4.845,0.757 7.267,1.363c1.211,0.202 2.473,0.353 3.785,0.454c1.312,0.101 2.574,0.252 3.785,0.454l3.028,0c1.211,0 2.473,0.05 3.785,0.151c1.312,0.101 2.473,-0.05 3.482,-0.454c1.009,-0.202 2.069,-0.252 3.179,-0.151c1.11,0.101 2.17,0.05 3.179,-0.151c2.422,-0.606 4.744,-1.11 6.964,-1.514c2.22,-0.404 4.441,-1.11 6.661,-2.119c7.671,-3.028 13.676,-6.964 18.016,-11.809c4.34,-4.845 7.822,-11.304 10.446,-19.378c1.615,-5.046 2.574,-10.749 2.876,-17.107c0.303,-6.358 0.454,-12.868 0.454,-19.53l0,-102.038c0,-3.432 -0.05,-7.317 -0.151,-11.657c-0.101,-4.34 0.656,-7.418 2.271,-9.235c1.009,-1.413 2.876,-2.119 5.602,-2.119l8.024,0c1.009,0 1.968,0.05 2.876,0.151c0.908,0.101 1.867,0.151 2.876,0.151c2.826,0.606 4.643,1.615 5.45,3.028c1.009,1.615 1.463,3.936 1.363,6.964c-0.101,3.028 -0.151,5.753 -0.151,8.175l0,104.763c0,7.469 -0.101,14.836 -0.303,22.103c-0.202,7.267 -1.11,13.827 -2.725,19.681c-2.826,9.891 -6.51,18.318 -11.052,25.283c-4.542,6.964 -10.648,12.868 -18.318,17.713c-3.028,1.817 -6.258,3.432 -9.689,4.845c-3.432,1.413 -7.065,2.725 -10.9,3.936c-1.817,0.606 -3.633,1.06 -5.45,1.363c-1.817,0.303 -3.734,0.656 -5.753,1.06c-2.019,0.404 -4.088,0.606 -6.207,0.606c-2.119,0 -4.189,0.202 -6.207,0.606l-3.633,0c-1.009,0.202 -2.624,0.303 -4.845,0.303c-2.22,0 -3.835,-0.101 -4.845,-0.303l-3.633,0c-1.413,-0.404 -2.876,-0.555 -4.39,-0.454c-1.514,0.101 -2.977,-0.05 -4.39,-0.454l-2.422,0c-1.615,-0.404 -3.179,-0.706 -4.693,-0.908c-1.514,-0.202 -3.078,-0.505 -4.693,-0.908c-3.432,-1.009 -6.813,-1.968 -10.143,-2.876c-3.331,-0.908 -6.51,-2.069 -9.538,-3.482c-1.413,-0.606 -2.776,-1.312 -4.088,-2.119c-1.312,-0.807 -2.675,-1.716 -4.088,-2.725c-6.056,-3.835 -11.102,-8.377 -15.139,-13.625c-4.037,-5.248 -7.469,-11.405 -10.295,-18.47c-1.211,-3.028 -2.119,-6.157 -2.725,-9.386c-0.606,-3.23 -1.312,-6.56 -2.119,-9.992c-0.202,-1.615 -0.353,-3.179 -0.454,-4.693c-0.101,-1.514 -0.252,-3.078 -0.454,-4.693l0,-3.028c-0.404,-1.615 -0.505,-3.28 -0.303,-4.996c0.202,-1.716 0.303,-3.381 0.303,-4.996l0,-124.747c0,-1.817 0.404,-3.331 1.211,-4.542c0.807,-1.413 2.321,-2.422 4.542,-3.028c1.211,0 2.019,-0.101 2.422,-0.303Z" style="fill:#78d64b;fill-rule:nonzero;"/><path d="M1367.855,36.759l24.223,0c1.817,0 3.331,0.404 4.542,1.211c1.817,1.211 3.078,2.826 3.785,4.845c0.706,2.019 1.564,4.138 2.574,6.358c1.615,3.835 3.078,7.671 4.39,11.506c1.312,3.835 2.776,7.671 4.39,11.506c1.413,3.633 2.725,7.317 3.936,11.052c1.211,3.734 2.624,7.418 4.239,11.052c1.211,2.826 2.321,5.753 3.331,8.781c1.009,3.028 2.119,5.955 3.331,8.781c3.633,9.084 7.065,18.218 10.295,27.402c3.23,9.184 6.661,18.318 10.295,27.402c0.404,1.009 0.757,2.019 1.06,3.028c0.303,1.009 0.656,2.019 1.06,3.028c1.817,4.441 3.532,8.932 5.147,13.474c1.615,4.542 3.331,9.033 5.147,13.474c0.807,1.817 1.615,3.987 2.422,6.51c0.807,2.523 2.119,3.987 3.936,4.39c0.807,0.202 1.413,0.151 1.817,-0.151c0.404,-0.303 0.807,-0.656 1.211,-1.06c1.009,-1.009 1.766,-2.119 2.271,-3.331c0.505,-1.211 1.06,-2.523 1.665,-3.936c1.615,-4.239 3.23,-8.528 4.845,-12.868c1.615,-4.34 3.23,-8.629 4.845,-12.868c0.404,-1.009 0.807,-2.069 1.211,-3.179c0.404,-1.11 0.807,-2.271 1.211,-3.482c1.615,-3.835 3.078,-7.721 4.39,-11.657c1.312,-3.936 2.776,-7.923 4.39,-11.96c4.845,-11.708 9.336,-23.516 13.474,-35.426c4.138,-11.91 8.629,-23.718 13.474,-35.426c1.615,-4.037 3.179,-8.175 4.693,-12.414c1.514,-4.239 3.078,-8.377 4.693,-12.414c0.807,-1.615 1.564,-3.633 2.271,-6.056c0.706,-2.422 1.766,-4.138 3.179,-5.147c1.211,-0.807 2.776,-1.413 4.693,-1.817c1.918,-0.404 4.088,-0.656 6.51,-0.757c2.422,-0.101 4.845,-0.101 7.267,0c2.422,0.101 4.643,0.151 6.661,0.151l5.602,0c1.918,0 3.381,0.404 4.39,1.211c1.817,1.009 2.826,2.826 3.028,5.45c0.202,2.624 0.303,5.45 0.303,8.478l0,185.304c0,2.22 0.05,4.441 0.151,6.661c0.101,2.22 -0.353,3.936 -1.363,5.147c-0.606,1.211 -1.514,1.968 -2.725,2.271c-1.211,0.303 -2.624,0.656 -4.239,1.06l-4.845,0c-2.624,0 -5.046,-0.05 -7.267,-0.151c-2.22,-0.101 -3.835,-0.959 -4.845,-2.574c-0.404,-0.606 -0.656,-1.262 -0.757,-1.968c-0.101,-0.706 -0.353,-1.564 -0.757,-2.574l0,-3.331c-0.202,-1.211 -0.252,-2.624 -0.151,-4.239c0.101,-1.615 0.151,-3.129 0.151,-4.542l0,-121.568c0,-5.147 -0.101,-10.143 -0.303,-14.988c0,-2.019 -0.101,-4.239 -0.303,-6.661c-0.202,-2.422 -1.312,-3.633 -3.331,-3.633l0,0.303c-1.413,0.404 -2.574,1.716 -3.482,3.936c-0.908,2.22 -1.665,4.138 -2.271,5.753c-1.413,3.432 -2.725,6.914 -3.936,10.446c-1.211,3.532 -2.624,7.015 -4.239,10.446c-0.404,1.009 -0.706,1.918 -0.908,2.725c-0.202,0.807 -0.505,1.716 -0.908,2.725c-1.615,3.633 -2.977,7.317 -4.088,11.052c-1.11,3.734 -2.473,7.418 -4.088,11.052c-1.413,3.028 -2.624,6.106 -3.633,9.235c-1.009,3.129 -2.119,6.207 -3.331,9.235c-4.037,9.487 -7.671,19.025 -10.9,28.613c-3.23,9.588 -6.762,19.025 -10.597,28.31c-1.615,3.633 -3.028,7.267 -4.239,10.9c-1.211,3.633 -2.523,7.267 -3.936,10.9c-1.009,2.22 -1.968,4.289 -2.876,6.207c-0.908,1.918 -2.675,3.28 -5.299,4.088c-0.404,0.202 -0.858,0.252 -1.363,0.151c-0.505,-0.101 -1.06,-0.05 -1.665,0.151c-0.606,0.202 -1.312,0.252 -2.119,0.151c-0.807,-0.101 -1.615,-0.151 -2.422,-0.151l-6.056,0c-2.019,0 -3.633,-0.505 -4.845,-1.514c-1.615,-1.009 -2.776,-2.473 -3.482,-4.39c-0.706,-1.918 -1.564,-3.886 -2.574,-5.904c-1.615,-4.037 -3.179,-8.226 -4.693,-12.566c-1.514,-4.34 -3.078,-8.528 -4.693,-12.566c-1.615,-3.633 -2.977,-7.317 -4.088,-11.052c-1.11,-3.734 -2.473,-7.418 -4.088,-11.052c-4.643,-11.304 -8.983,-22.709 -13.02,-34.215c-4.037,-11.506 -8.377,-22.911 -13.02,-34.215c-1.615,-4.239 -3.179,-8.528 -4.693,-12.868c-1.514,-4.34 -3.078,-8.528 -4.693,-12.566c-1.009,-2.22 -1.867,-4.39 -2.574,-6.51c-0.706,-2.119 -1.766,-3.987 -3.179,-5.602c-0.202,-0.404 -0.404,-0.656 -0.606,-0.757c-0.202,-0.101 -0.404,-0.252 -0.606,-0.454l-1.514,0c-0.202,0.202 -0.404,0.353 -0.606,0.454c-0.202,0.101 -0.404,0.252 -0.606,0.454c-0.404,1.009 -0.606,2.119 -0.606,3.331c0,1.211 -0.202,2.422 -0.606,3.633l0,3.331c-0.404,1.211 -0.505,2.523 -0.303,3.936c0.202,1.413 0.303,2.826 0.303,4.239l0,132.317c0,2.22 -0.05,4.441 -0.151,6.661c-0.101,2.22 -0.656,3.936 -1.665,5.147c-1.009,1.615 -2.776,2.473 -5.299,2.574c-2.523,0.101 -5.198,0.151 -8.024,0.151l-3.785,0c-1.11,0 -2.17,-0.202 -3.179,-0.606c-2.624,-0.807 -4.088,-2.523 -4.39,-5.147c-0.303,-2.624 -0.454,-5.652 -0.454,-9.084l0,-184.699c0,-2.22 -0.05,-4.542 -0.151,-6.964c-0.101,-2.422 0.353,-4.34 1.363,-5.753c0.807,-1.211 2.321,-2.22 4.542,-3.028c0.404,-0.202 0.858,-0.252 1.363,-0.151c0.505,0.101 0.959,0.05 1.363,-0.151Z" style="fill:#78d64b;fill-rule:nonzero;"/></g><rect x="384.834" y="0.073" width="4.099" height="287.98" style="fill:#78d64b;"/></g></g></svg>